<?xml version="1.0" standalone="no"?>
<!DOCTYPE svg PUBLIC "-//W3C//DTD SVG 20010904//EN"
 "http://www.w3.org/TR/2001/REC-SVG-20010904/DTD/svg10.dtd">
<svg version="1.0" xmlns="http://www.w3.org/2000/svg"
 width="225.000000pt" height="51.000000pt" viewBox="0 0 225.000000 51.000000"
 preserveAspectRatio="xMidYMid meet">
<metadata>
Created by potrace 1.13, written by Peter Selinger 2001-2015
</metadata>
<g transform="translate(0.000000,51.000000) scale(0.100000,-0.100000)"
fill="#000000" stroke="none">
<path d="M820 471 c0 -17 6 -33 13 -38 6 -4 54 -10 105 -13 l93 -5 -113 -179
c-63 -99 -118 -181 -124 -183 -5 -1 -49 93 -98 210 -49 116 -92 215 -96 220
-3 4 -49 -94 -102 -218 l-96 -226 36 3 c33 3 37 7 58 58 l22 55 78 0 78 0 22
-55 22 -55 221 -3 221 -2 0 35 0 34 -119 3 -120 3 106 165 c58 91 112 173 121
183 14 16 8 17 -126 17 -88 0 -142 4 -142 10 0 6 -13 10 -30 10 -27 0 -30 -3
-30 -29z"/>
<path d="M1938 265 l-96 -226 36 3 c33 3 37 7 58 58 l22 55 78 0 78 0 22 -55
c20 -51 24 -55 58 -58 l37 -3 -16 38 c-79 191 -169 399 -175 406 -3 4 -49 -94
-102 -218z"/>
<path d="M169 467 c-84 -32 -130 -86 -150 -175 -31 -146 86 -266 244 -249 28
3 64 10 80 16 27 10 27 11 27 106 l0 95 -75 0 -75 0 0 -30 c0 -28 2 -30 41
-30 l40 0 -3 -43 -3 -42 -57 0 c-88 1 -149 56 -150 136 -2 90 60 154 147 154
28 0 61 -3 75 -7 21 -6 28 -2 42 23 17 30 17 30 -10 40 -44 18 -134 21 -173 6z"/>
<path d="M1220 260 l0 -220 150 0 150 0 0 35 0 35 -115 0 -115 0 0 55 0 55
100 0 100 0 0 35 0 35 -100 0 -100 0 0 65 0 65 110 0 110 0 0 30 0 30 -145 0
-145 0 0 -220z"/>
<path d="M1570 445 l0 -35 50 0 50 0 0 -185 0 -185 35 0 35 0 0 185 0 185 55
0 55 0 0 35 0 35 -140 0 -140 0 0 -35z"/>
</g>
</svg>
