<?xml version="1.0" standalone="no"?>
<!DOCTYPE svg PUBLIC "-//W3C//DTD SVG 20010904//EN"
 "http://www.w3.org/TR/2001/REC-SVG-20010904/DTD/svg10.dtd">
<svg version="1.0" xmlns="http://www.w3.org/2000/svg"
 width="1200.000000pt" height="290.000000pt" viewBox="0 0 1200.000000 290.000000"
 preserveAspectRatio="xMidYMid meet">
<metadata>
Created by potrace 1.15, written by Peter Selinger 2001-2017
</metadata>
<g transform="translate(0.000000,290.000000) scale(0.100000,-0.100000)"
fill="#000000" stroke="none">
<path d="M3553 2608 c-13 -6 -28 -26 -35 -44 -10 -29 -18 -34 -76 -49 -35 -9
-92 -27 -125 -40 -55 -23 -63 -24 -83 -10 -32 21 -67 19 -98 -6 -23 -18 -27
-28 -25 -61 3 -35 -1 -43 -47 -87 -28 -27 -68 -69 -88 -95 -34 -40 -43 -46
-77 -46 -26 0 -46 -7 -59 -20 -27 -27 -27 -83 0 -110 19 -19 19 -23 6 -54 -15
-37 -41 -152 -51 -228 -5 -38 -10 -48 -25 -48 -23 0 -60 -46 -60 -75 0 -32 37
-75 66 -75 18 0 25 -7 30 -27 18 -84 41 -150 89 -253 121 -262 156 -420 163
-739 4 -201 6 -225 23 -242 18 -18 42 -19 482 -19 254 0 467 4 473 8 26 17 34
56 34 161 l0 111 118 0 c182 1 242 22 282 100 18 35 20 60 20 220 l0 180 84 0
c69 0 88 4 110 21 42 33 35 64 -64 253 -49 95 -97 192 -105 217 -9 24 -20 98
-25 164 -11 156 -32 235 -95 361 -44 88 -49 105 -38 120 21 28 16 72 -12 99
-26 27 -54 31 -85 15 -16 -9 -34 0 -105 55 -47 36 -89 65 -94 65 -4 0 -7 21
-7 46 1 37 -4 50 -23 65 -35 29 -78 24 -111 -11 -24 -26 -32 -29 -54 -21 -14
6 -63 15 -110 22 -55 8 -86 16 -86 24 0 42 -73 75 -117 53z m303 -143 c60 -18
81 -46 64 -89 -20 -54 23 -66 45 -12 8 19 19 38 25 41 13 8 99 -44 166 -101
58 -49 74 -86 49 -114 -14 -16 -14 -18 1 -30 13 -11 19 -11 36 -1 29 18 60 -6
102 -82 64 -115 106 -267 106 -390 1 -101 15 -142 117 -344 98 -192 98 -192
78 -212 -21 -20 -68 -30 -147 -31 l-48 0 0 -187 c0 -290 -12 -304 -267 -311
l-153 -4 0 -110 c0 -104 -8 -143 -34 -160 -6 -4 -201 -8 -433 -8 -410 0 -424
1 -443 20 -19 19 -20 33 -20 203 0 198 -15 323 -55 475 -25 92 -41 135 -124
317 -49 111 -77 210 -67 248 6 25 10 27 56 27 47 0 50 2 50 25 0 23 -3 25 -48
25 -41 0 -51 4 -62 24 -18 35 -6 130 32 244 36 107 49 117 119 82 41 -21 43
-21 56 -4 11 16 7 20 -37 46 -32 18 -50 35 -50 47 0 26 81 131 141 184 63 55
94 54 130 -4 26 -43 31 -46 48 -25 10 12 7 23 -14 54 -37 57 -25 80 62 119
145 65 243 66 243 3 0 -41 10 -60 31 -60 16 0 19 8 19 48 0 26 6 54 13 61 15
16 139 9 213 -14z"/>
<path d="M3620 2042 c0 -10 5 -67 11 -126 6 -59 8 -115 4 -124 -4 -11 -27 16
-81 96 -68 103 -76 111 -95 101 -23 -12 -31 4 69 -146 30 -45 53 -86 51 -91
-2 -6 -56 18 -119 53 -85 48 -117 61 -127 53 -7 -6 -13 -14 -13 -19 0 -4 46
-34 103 -65 126 -70 126 -70 120 -94 -5 -19 -15 -20 -139 -20 l-134 0 0 -25 0
-25 133 0 132 -1 20 -42 c28 -58 74 -87 140 -87 66 0 112 29 143 90 27 52 24
108 -8 152 l-19 26 95 93 c52 51 93 98 91 104 -9 27 -41 9 -129 -75 -53 -49
-99 -90 -102 -90 -13 0 -5 32 35 140 33 91 38 114 28 121 -8 5 -18 7 -23 6 -5
-2 -29 -57 -53 -122 -24 -66 -46 -122 -49 -124 -9 -10 -13 10 -25 132 -12 123
-13 127 -36 127 -16 0 -23 -6 -23 -18z m129 -316 c57 -30 68 -107 22 -158 -25
-28 -36 -33 -75 -33 -58 0 -95 33 -103 93 -5 37 -2 45 30 77 39 39 78 45 126
21z"/>
<path d="M4970 1450 l0 -243 106 6 c123 7 159 23 188 81 17 36 18 43 5 80 -15
44 -72 85 -119 87 -21 0 -18 3 15 15 103 37 115 142 22 191 -20 10 -67 18
-124 21 l-93 5 0 -243z m185 195 c19 -18 25 -35 25 -69 0 -65 -30 -97 -98
-104 l-52 -5 0 102 0 101 50 0 c41 0 56 -5 75 -25z m-23 -195 c48 -14 68 -43
68 -102 0 -89 -30 -118 -120 -118 l-50 0 0 115 0 115 33 0 c17 0 49 -5 69 -10z"/>
<path d="M5420 1450 l0 -240 30 0 30 0 0 240 0 240 -30 0 -30 0 0 -240z"/>
<path d="M5640 1680 c0 -6 50 -10 130 -10 72 0 130 -2 130 -5 0 -2 -67 -102
-149 -222 -82 -120 -147 -221 -144 -225 7 -12 373 -10 373 2 0 5 -60 11 -146
12 l-146 3 151 218 c83 121 151 223 151 228 0 5 -78 9 -175 9 -110 0 -175 -4
-175 -10z"/>
<path d="M6110 1680 c0 -6 52 -10 135 -10 l136 0 -146 -214 c-80 -118 -148
-221 -151 -230 -5 -14 15 -16 185 -16 230 0 265 18 43 22 l-148 3 148 215 c81
118 148 221 148 227 0 10 -42 13 -175 13 -110 0 -175 -4 -175 -10z"/>
<path d="M6680 1681 c-78 -25 -139 -81 -160 -147 -20 -59 -8 -166 24 -214 99
-149 318 -139 399 19 60 120 17 265 -95 322 -45 23 -129 33 -168 20z m150 -37
c53 -45 64 -77 64 -194 0 -88 -3 -111 -20 -140 -30 -51 -78 -80 -133 -80 -62
0 -103 27 -132 87 -33 67 -34 207 -1 269 32 62 66 83 134 84 47 0 62 -5 88
-26z"/>
<path d="M7112 1458 l2 -233 6 213 5 213 36 -48 c141 -186 282 -370 295 -383
12 -12 14 17 14 228 0 155 -4 242 -10 242 -6 0 -10 -67 -10 -182 l0 -181 -136
181 c-130 173 -138 182 -170 182 l-34 0 2 -232z"/>
<path d="M7622 1458 l2 -233 6 211 5 211 163 -213 c90 -118 167 -214 172 -214
6 0 10 92 10 235 0 146 -4 235 -10 235 -6 0 -11 -71 -12 -180 l-3 -181 -135
181 c-127 169 -136 180 -167 180 l-33 0 2 -232z"/>
<path d="M8112 1453 l3 -238 138 -3 c89 -2 137 1 137 8 0 6 -40 10 -105 10
l-105 0 0 115 0 114 73 4 72 3 -72 2 -73 2 0 100 0 100 105 0 c63 0 105 4 105
10 0 6 -53 10 -140 10 l-140 0 2 -237z"/>
<path d="M8586 1675 c-62 -22 -89 -46 -120 -108 -47 -94 -36 -218 27 -285 77
-83 232 -89 301 -13 11 12 14 21 8 21 -7 0 -12 -4 -12 -9 0 -15 -84 -51 -119
-51 -56 0 -108 37 -137 97 -24 48 -26 62 -22 136 5 98 27 150 79 185 45 31
129 28 178 -7 18 -13 35 -21 37 -18 8 8 -39 37 -84 53 -48 17 -87 17 -136 -1z"/>
<path d="M8840 1680 c0 -6 40 -10 100 -10 l100 0 0 -230 0 -230 30 0 30 0 0
230 0 230 100 0 c60 0 100 4 100 10 0 6 -83 10 -230 10 -147 0 -230 -4 -230
-10z"/>
</g>
</svg>
